<?xml version="1.0" encoding="UTF-8"?>
<svg width="153px" height="591px" viewBox="0 0 153 591" version="1.1" xmlns="http://www.w3.org/2000/svg" xmlns:xlink="http://www.w3.org/1999/xlink">
    <!-- Generator: Sketch 51.3 (57544) - http://www.bohemiancoding.com/sketch -->
    <title>Group 104</title>
    <desc>Created with Sketch.</desc>
    <defs>
        <polygon id="path-1" points="0.756047796 0.085 25.5764411 0.085 25.5764411 23.4202394 0.756047796 23.4202394"></polygon>
        <polygon id="path-3" points="0 0.477305096 10.6582302 0.477305096 10.6582302 15.7768993 0 15.7768993"></polygon>
        <polygon id="path-5" points="0.702233638 0.165594845 12.028 0.165594845 12.028 15.3578232 0.702233638 15.3578232"></polygon>
    </defs>
    <g id="Welcome" stroke="none" stroke-width="1" fill="none" fill-rule="evenodd">
        <g id="Desktop" transform="translate(-22.000000, -610.000000)">
            <g id="Group-104" transform="translate(22.000000, 609.000000)">
                <path d="M31.1231,34.3989 C31.4051,38.8089 29.0101,42.5549 25.7691,42.7609 C22.5301,42.9679 19.6761,39.5609 19.3931,35.1509 C19.1101,30.7409 21.5071,26.9969 24.7471,26.7909 C27.9831,26.5829 30.8401,29.9889 31.1231,34.3989" id="Fill-1" fill="#4F4139"></path>
                <path d="M12.3917,36.2827 C15.3217,36.0967 17.4787,32.5217 17.2077,28.3027 C16.9377,24.0817 14.3437,20.8107 11.4137,20.9997 C8.4827,21.1857 6.3267,24.7607 6.5967,28.9807 C6.8667,33.2037 9.4607,36.4727 12.3917,36.2827" id="Fill-3" fill="#4F4139"></path>
                <path d="M32.921,23.2856 C30.517,25.1846 30.942,29.5606 33.871,33.0616 C36.804,36.5616 41.133,37.8606 43.54,35.9616 C45.943,34.0636 45.519,29.6876 42.589,26.1856 C39.655,22.6856 35.33,21.3886 32.921,23.2856" id="Fill-5" fill="#4F4139"></path>
                <path d="M39.5587,19.5971 C42.3507,22.9231 46.4767,24.1571 48.7707,22.3521 C51.0647,20.5501 50.6587,16.3921 47.8667,13.0681 C45.0727,9.7431 40.9487,8.5101 38.6557,10.3131 C36.3607,12.1161 36.7637,16.2721 39.5587,19.5971" id="Fill-7" fill="#4F4139"></path>
                <g id="Group-11" transform="translate(10.000000, 0.915000)">
                    <mask id="mask-2" fill="white">
                        <use xlink:href="#path-1"></use>
                    </mask>
                    <g id="Clip-10"></g>
                    <path d="M18.2774,23.2173 L18.8394,22.9973 C18.8394,22.9973 29.2584,16.8033 24.1824,3.9953 C21.2684,-3.5497 16.2724,2.1453 16.2724,2.1453 C16.2724,2.1453 14.6734,5.8603 12.4664,6.7243 L11.9294,7.0033 C9.7224,7.8673 6.0324,6.2433 6.0324,6.2433 C6.0324,6.2433 -1.5316,5.3813 1.4534,12.9033 C6.4234,25.7523 18.2774,23.2173 18.2774,23.2173" id="Fill-9" fill="#4F4139" mask="url(#mask-2)"></path>
                </g>
                <path d="M24.5509,107.8003 C24.8319,112.2113 22.4369,115.9553 19.1969,116.1623 C15.9569,116.3693 13.1049,112.9633 12.8209,108.5513 C12.5379,104.1413 14.9349,100.3973 18.1739,100.1923 C21.4109,99.9843 24.2679,103.3913 24.5509,107.8003" id="Fill-12" fill="#4F4139"></path>
                <g id="Group-16" transform="translate(0.000000, 93.915000)">
                    <mask id="mask-4" fill="white">
                        <use xlink:href="#path-3"></use>
                    </mask>
                    <g id="Clip-15"></g>
                    <path d="M5.8194,15.7691 C8.7494,15.5831 10.9054,12.0081 10.6354,7.7881 C10.3644,3.5671 7.7704,0.2961 4.8404,0.4851 C1.9104,0.6721 -0.2456,4.2471 0.0224,8.4661 C0.2934,12.6891 2.8884,15.9581 5.8194,15.7691" id="Fill-14" fill="#4F4139" mask="url(#mask-4)"></path>
                </g>
                <path d="M26.3477,96.688 C23.9447,98.585 24.3687,102.962 27.2987,106.462 C30.2317,109.963 34.5607,111.262 36.9667,109.362 C39.3707,107.464 38.9457,103.089 36.0167,99.587 C33.0837,96.088 28.7577,94.79 26.3477,96.688" id="Fill-17" fill="#4F4139"></path>
                <path d="M32.9864,92.9985 C35.7784,96.3235 39.9044,97.5575 42.1974,95.7545 C44.4924,93.9515 44.0874,89.7935 41.2944,86.4695 C38.4994,83.1445 34.3764,81.9115 32.0824,83.7145 C29.7884,85.5175 30.1914,89.6745 32.9864,92.9985" id="Fill-19" fill="#4F4139"></path>
                <path d="M21.7042,97.5337 L22.2662,97.3137 C22.2662,97.3137 32.6862,91.1197 27.6102,78.3117 C24.6952,70.7667 19.7002,76.4607 19.7002,76.4607 C19.7002,76.4607 18.1012,80.1777 15.8932,81.0417 L15.3562,81.3207 C13.1502,82.1847 9.4602,80.5587 9.4602,80.5587 C9.4602,80.5587 1.8952,79.6977 4.8812,87.2187 C9.8502,100.0687 21.7042,97.5337 21.7042,97.5337" id="Fill-21" fill="#4F4139"></path>
                <path d="M90.5968,155.1304 C90.8788,159.5414 88.4828,163.2854 85.2428,163.4934 C82.0028,163.6994 79.1498,160.2934 78.8658,155.8814 C78.5838,151.4714 80.9798,147.7274 84.2198,147.5214 C87.4558,147.3144 90.3138,150.7214 90.5968,155.1304" id="Fill-23" fill="#4F4139"></path>
                <path d="M71.8653,157.0142 C74.7943,156.8282 76.9523,153.2532 76.6803,149.0332 C76.4103,144.8112 73.8153,141.5402 70.8863,141.7292 C67.9553,141.9172 65.7993,145.4922 66.0693,149.7112 C66.3403,153.9342 68.9343,157.2022 71.8653,157.0142" id="Fill-25" fill="#4F4139"></path>
                <path d="M92.3946,144.0171 C89.9896,145.9151 90.4146,150.2911 93.3446,153.7911 C96.2766,157.2931 100.6056,158.5921 103.0126,156.6921 C105.4166,154.7951 104.9926,150.4181 102.0626,146.9171 C99.1296,143.4181 94.8026,142.1201 92.3946,144.0171" id="Fill-27" fill="#4F4139"></path>
                <path d="M99.0314,140.3286 C101.8254,143.6536 105.9494,144.8876 108.2444,143.0836 C110.5384,141.2816 110.1324,137.1236 107.3404,133.7986 C104.5464,130.4736 100.4224,129.2416 98.1284,131.0446 C95.8344,132.8476 96.2374,137.0036 99.0314,140.3286" id="Fill-29" fill="#4F4139"></path>
                <path d="M87.7501,144.8638 L88.3121,144.6438 C88.3121,144.6438 98.7321,138.4498 93.6551,125.6418 C90.7421,118.0968 85.7461,123.7908 85.7461,123.7908 C85.7461,123.7908 84.1461,127.5078 81.9401,128.3718 L81.4021,128.6498 C79.1951,129.5138 75.5051,127.8888 75.5051,127.8888 C75.5051,127.8888 67.9411,127.0278 70.9271,134.5488 C75.8961,147.3988 87.7501,144.8638 87.7501,144.8638" id="Fill-31" fill="#4F4139"></path>
                <path d="M73.2472,226.0503 C73.5292,230.4613 71.1332,234.2053 67.8932,234.4133 C64.6542,234.6193 61.8012,231.2133 61.5162,226.8013 C61.2332,222.3913 63.6302,218.6473 66.8702,218.4423 C70.1072,218.2343 72.9652,221.6413 73.2472,226.0503" id="Fill-33" fill="#4F4139"></path>
                <path d="M54.5157,227.9341 C57.4457,227.7481 59.6027,224.1731 59.3317,219.9531 C59.0607,215.7321 56.4677,212.4611 53.5367,212.6501 C50.6067,212.8381 48.4497,216.4121 48.7187,220.6311 C48.9907,224.8541 51.5847,228.1231 54.5157,227.9341" id="Fill-35" fill="#4F4139"></path>
                <path d="M75.045,214.938 C72.641,216.835 73.065,221.212 75.995,224.712 C78.927,228.213 83.257,229.512 85.663,227.614 C88.067,225.716 87.643,221.339 84.713,217.837 C81.78,214.338 77.454,213.04 75.045,214.938" id="Fill-37" fill="#4F4139"></path>
                <path d="M81.6827,211.2485 C84.4757,214.5745 88.6007,215.8075 90.8937,214.0045 C93.1887,212.2015 92.7837,208.0445 89.9907,204.7195 C87.1957,201.3945 83.0727,200.1615 80.7787,201.9645 C78.4857,203.7675 78.8877,207.9245 81.6827,211.2485" id="Fill-39" fill="#4F4139"></path>
                <path d="M70.4005,215.7837 L70.9625,215.5637 C70.9625,215.5637 81.3835,209.3697 76.3065,196.5617 C73.3915,189.0167 68.3965,194.7107 68.3965,194.7107 C68.3965,194.7107 66.7975,198.4277 64.5905,199.2917 L64.0535,199.5707 C61.8465,200.4347 58.1565,198.8097 58.1565,198.8097 C58.1565,198.8097 50.5915,197.9477 53.5775,205.4687 C58.5475,218.3187 70.4005,215.7837 70.4005,215.7837" id="Fill-41" fill="#4F4139"></path>
                <path d="M116.9044,267.9995 C115.5864,272.2185 112.0064,274.8555 108.9074,273.8865 C105.8084,272.9185 104.3674,268.7145 105.6834,264.4965 C107.0014,260.2775 110.5814,257.6425 113.6794,258.6115 C116.7754,259.5775 118.2204,263.7815 116.9044,267.9995" id="Fill-43" fill="#4F4139"></path>
                <path d="M98.7413,263.0425 C101.5433,263.9195 104.8393,261.3555 106.0993,257.3185 C107.3603,253.2815 106.1113,249.2995 103.3083,248.4245 C100.5053,247.5475 97.2113,250.1105 95.9503,254.1475 C94.6873,258.1875 95.9383,262.1695 98.7413,263.0425" id="Fill-45" fill="#4F4139"></path>
                <path d="M122.5665,258.271 C119.6405,259.181 118.4685,263.418 119.9485,267.737 C121.4305,272.056 125.0065,274.821 127.9345,273.911 C130.8585,273 132.0315,268.763 130.5505,264.444 C129.0685,260.125 125.4955,257.363 122.5665,258.271" id="Fill-47" fill="#4F4139"></path>
                <path d="M130.0851,257.2065 C131.5001,261.3115 134.9081,263.9435 137.6971,263.0805 C140.4841,262.2225 141.5971,258.1935 140.1821,254.0905 C138.7661,249.9835 135.3571,247.3545 132.5701,248.2165 C129.7821,249.0765 128.6691,253.1005 130.0851,257.2065" id="Fill-49" fill="#4F4139"></path>
                <path d="M117.9278,257.396 L118.5318,257.392 C118.5318,257.392 130.4798,255.345 130.3318,241.569 C130.3178,233.481 123.6128,237.006 123.6128,237.006 C123.6128,237.006 120.7858,239.9 118.4168,239.916 L117.8158,239.984 C115.4458,240 112.5828,237.16 112.5828,237.16 C112.5828,237.16 105.8308,233.643 105.9198,241.734 C105.9528,255.511 117.9278,257.396 117.9278,257.396" id="Fill-51" fill="#4F4139"></path>
                <path d="M84.4503,334.1645 C83.1323,338.3845 79.5533,341.0195 76.4553,340.0525 C73.3563,339.0835 71.9143,334.8805 73.2303,330.6595 C74.5493,326.4415 78.1283,323.8055 81.2253,324.7745 C84.3223,325.7415 85.7673,329.9475 84.4503,334.1645" id="Fill-53" fill="#4F4139"></path>
                <path d="M66.2892,329.2075 C69.0912,330.0845 72.3862,327.5205 73.6462,323.4835 C74.9072,319.4455 73.6582,315.4635 70.8562,314.5885 C68.0532,313.7125 64.7592,316.2755 63.4962,320.3115 C62.2352,324.3515 63.4852,328.3335 66.2892,329.2075" id="Fill-55" fill="#4F4139"></path>
                <path d="M90.1134,324.4351 C87.1884,325.3451 86.0144,329.5821 87.4964,333.9011 C88.9774,338.2201 92.5534,340.9851 95.4814,340.0741 C98.4064,339.1651 99.5784,334.9281 98.0984,330.6091 C96.6154,326.2911 93.0434,323.5281 90.1134,324.4351" id="Fill-57" fill="#4F4139"></path>
                <path d="M97.6329,323.3706 C99.0469,327.4766 102.4559,330.1066 105.2429,329.2466 C108.0309,328.3866 109.1439,324.3596 107.7289,320.2546 C106.3129,316.1486 102.9049,313.5196 100.1169,314.3806 C97.3299,315.2406 96.2149,319.2666 97.6329,323.3706" id="Fill-59" fill="#4F4139"></path>
                <path d="M85.4747,323.5601 L86.0787,323.5561 C86.0787,323.5561 98.0267,321.5101 97.8797,307.7341 C97.8637,299.6461 91.1597,303.1691 91.1597,303.1691 C91.1597,303.1691 88.3337,306.0661 85.9637,306.0811 L85.3627,306.1501 C82.9927,306.1641 80.1297,303.3241 80.1297,303.3241 C80.1297,303.3241 73.3767,299.8081 73.4677,307.8991 C73.4997,321.6761 85.4747,323.5601 85.4747,323.5601" id="Fill-61" fill="#4F4139"></path>
                <path d="M129.1358,402.0278 C127.8178,406.2468 124.2388,408.8828 121.1398,407.9158 C118.0408,406.9468 116.5988,402.7438 117.9148,398.5228 C119.2338,394.3038 122.8128,391.6698 125.9108,392.6378 C129.0068,393.6048 130.4518,397.8098 129.1358,402.0278" id="Fill-63" fill="#4F4139"></path>
                <path d="M110.9747,397.0698 C113.7757,397.9478 117.0717,395.3828 118.3307,391.3468 C119.5927,387.3088 118.3427,383.3258 115.5407,382.4508 C112.7377,381.5758 109.4437,384.1388 108.1817,388.1748 C106.9207,392.2148 108.1707,396.1968 110.9747,397.0698" id="Fill-65" fill="#4F4139"></path>
                <path d="M134.7989,392.2983 C131.8729,393.2083 130.6999,397.4453 132.1819,401.7643 C133.6619,406.0833 137.2379,408.8483 140.1659,407.9373 C143.0909,407.0283 144.2639,402.7913 142.7839,398.4723 C141.3009,394.1533 137.7279,391.3913 134.7989,392.2983" id="Fill-67" fill="#4F4139"></path>
                <g id="Group-71" transform="translate(141.000000, 381.915000)">
                    <mask id="mask-6" fill="white">
                        <use xlink:href="#path-5"></use>
                    </mask>
                    <g id="Clip-70"></g>
                    <path d="M1.3175,9.3189 C2.7325,13.4249 6.1405,16.0549 8.9285,15.1949 C11.7165,14.3349 12.8285,10.3079 11.4145,6.2029 C9.9985,2.0969 6.5895,-0.5321 3.8025,0.3289 C1.0145,1.1889 -0.0995,5.2149 1.3175,9.3189" id="Fill-69" fill="#4F4139" mask="url(#mask-6)"></path>
                </g>
                <path d="M130.1602,391.4233 L130.7632,391.4193 C130.7632,391.4193 142.7112,389.3733 142.5642,375.5973 C142.5492,367.5093 135.8442,371.0323 135.8442,371.0323 C135.8442,371.0323 133.0182,373.9293 130.6492,373.9443 L130.0482,374.0123 C127.6772,374.0273 124.8142,371.1873 124.8142,371.1873 C124.8142,371.1873 118.0632,367.6713 118.1532,375.7623 C118.1842,389.5393 130.1602,391.4233 130.1602,391.4233" id="Fill-72" fill="#4F4139"></path>
                <path d="M87.5118,462.0122 C86.1938,466.2322 82.6148,468.8672 79.5158,467.9002 C76.4178,466.9312 74.9758,462.7282 76.2908,458.5072 C77.6098,454.2892 81.1888,451.6542 84.2868,452.6232 C87.3848,453.5892 88.8288,457.7952 87.5118,462.0122" id="Fill-74" fill="#4F4139"></path>
                <path d="M69.3507,457.0552 C72.1527,457.9322 75.4477,455.3682 76.7077,451.3312 C77.9687,447.2932 76.7197,443.3112 73.9167,442.4362 C71.1137,441.5612 67.8197,444.1232 66.5577,448.1592 C65.2967,452.1992 66.5467,456.1812 69.3507,457.0552" id="Fill-76" fill="#4F4139"></path>
                <path d="M93.1749,452.2827 C90.2499,453.1927 89.0759,457.4297 90.5579,461.7487 C92.0389,466.0677 95.6149,468.8327 98.5419,467.9237 C101.4669,467.0137 102.6399,462.7757 101.1599,458.4567 C99.6769,454.1387 96.1049,451.3757 93.1749,452.2827" id="Fill-78" fill="#4F4139"></path>
                <path d="M100.6944,451.2192 C102.1084,455.3242 105.5174,457.9542 108.3044,457.0942 C111.0924,456.2352 112.2054,452.2072 110.7904,448.1032 C109.3744,443.9962 105.9664,441.3672 103.1784,442.2282 C100.3914,443.0892 99.2764,447.1142 100.6944,451.2192" id="Fill-80" fill="#4F4139"></path>
                <path d="M88.5362,451.4077 L89.1402,451.4037 C89.1402,451.4037 101.0892,449.3577 100.9412,435.5817 C100.9252,427.4937 94.2212,431.0167 94.2212,431.0167 C94.2212,431.0167 91.3952,433.9137 89.0252,433.9287 L88.4242,433.9977 C86.0542,434.0117 83.1912,431.1737 83.1912,431.1737 C83.1912,431.1737 76.4392,427.6557 76.5292,435.7467 C76.5622,449.5237 88.5362,451.4077 88.5362,451.4077" id="Fill-82" fill="#4F4139"></path>
                <path d="M85.4464,529.4223 C82.9374,533.0613 78.7374,534.5203 76.0654,532.6763 C73.3924,530.8333 73.2604,526.3913 75.7674,522.7523 C78.2764,519.1133 82.4754,517.6563 85.1484,519.5003 C87.8194,521.3403 87.9534,525.7833 85.4464,529.4223" id="Fill-84" fill="#4F4139"></path>
                <path d="M69.5685,519.3071 C71.9845,520.9751 75.8915,519.5021 78.2915,516.0201 C80.6925,512.5381 80.6785,508.3651 78.2605,506.6991 C75.8425,505.0311 71.9375,506.5031 69.5375,509.9851 C67.1345,513.4681 67.1495,517.6431 69.5685,519.3071" id="Fill-86" fill="#4F4139"></path>
                <path d="M93.7374,521.8081 C90.6744,521.8101 88.2984,525.5101 88.4324,530.0741 C88.5684,534.6371 91.1654,538.3371 94.2304,538.3351 C97.2944,538.3331 99.6694,534.6331 99.5344,530.0701 C99.3974,525.5051 96.8034,521.8081 93.7374,521.8081" id="Fill-88" fill="#4F4139"></path>
                <path d="M101.2335,523.019 C101.3685,527.36 103.8445,530.882 106.7635,530.884 C109.6795,530.89 111.9355,527.373 111.7995,523.034 C111.6645,518.692 109.1885,515.171 106.2705,515.168 C103.3525,515.164 101.0975,518.677 101.2335,523.019" id="Fill-90" fill="#4F4139"></path>
                <path d="M89.5665,519.5971 L90.1435,519.7731 C90.1435,519.7731 102.1615,521.3581 106.1025,508.1561 C108.4845,500.4271 101.0355,501.8071 101.0355,501.8071 C101.0355,501.8071 97.4795,503.7351 95.2125,503.0471 L94.6175,502.9341 C92.3485,502.2461 90.4565,498.6871 90.4565,498.6871 C90.4565,498.6871 85.0485,493.3271 82.7375,501.0821 C78.6865,514.2501 89.5665,519.5971 89.5665,519.5971" id="Fill-92" fill="#4F4139"></path>
                <path d="M34.8487,583.0024 C32.3387,586.6424 28.1397,588.0994 25.4677,586.2574 C22.7947,584.4144 22.6627,579.9724 25.1707,576.3314 C27.6797,572.6924 31.8787,571.2354 34.5497,573.0794 C37.2217,574.9204 37.3557,579.3644 34.8487,583.0024" id="Fill-94" fill="#4F4139"></path>
                <path d="M18.9708,572.8872 C21.3868,574.5552 25.2938,573.0822 27.6948,569.6002 C30.0938,566.1172 30.0808,561.9442 27.6638,560.2782 C25.2458,558.6112 21.3398,560.0832 18.9388,563.5642 C16.5368,567.0482 16.5518,571.2222 18.9708,572.8872" id="Fill-96" fill="#4F4139"></path>
                <path d="M43.1388,575.3882 C40.0758,575.3902 37.7008,579.0892 37.8348,583.6532 C37.9708,588.2172 40.5678,591.9172 43.6338,591.9142 C46.6968,591.9132 49.0708,588.2132 48.9378,583.6502 C48.7998,579.0862 46.2058,575.3882 43.1388,575.3882" id="Fill-98" fill="#4F4139"></path>
                <path d="M50.6368,576.5991 C50.7708,580.9401 53.2478,584.4611 56.1648,584.4651 C59.0828,584.4701 61.3378,580.9531 61.2018,576.6141 C61.0668,572.2721 58.5908,568.7511 55.6728,568.7471 C52.7558,568.7451 50.4988,572.2581 50.6368,576.5991" id="Fill-100" fill="#4F4139"></path>
                <path d="M38.9679,573.1772 L39.5459,573.3532 C39.5459,573.3532 51.5649,574.9382 55.5049,561.7372 C57.8859,554.0072 50.4389,555.3862 50.4389,555.3862 C50.4389,555.3862 46.8819,557.3162 44.6139,556.6282 L44.0189,556.5152 C41.7509,555.8272 39.8589,552.2672 39.8589,552.2672 C39.8589,552.2672 34.4509,546.9072 32.1409,554.6622 C28.0899,567.8302 38.9679,573.1772 38.9679,573.1772" id="Fill-102" fill="#4F4139"></path>
            </g>
        </g>
    </g>
</svg>