<svg id="Layer_1" data-name="Layer 1" xmlns="http://www.w3.org/2000/svg" xmlns:xlink="http://www.w3.org/1999/xlink" viewBox="0 0 197.38 38.37"><defs><style>.cls-1{fill:#fff;}.cls-2{fill:url(#radial-gradient);}</style><radialGradient id="radial-gradient" cx="-535.7" cy="526.27" r="0.28" gradientTransform="matrix(96.78, 0, 0, -89.45, 51865.54, 47097.68)" gradientUnits="userSpaceOnUse"><stop offset="0" stop-color="#ffb900"/><stop offset="0.6" stop-color="#f95d8f"/><stop offset="1" stop-color="#f95353"/></radialGradient></defs><title>asana-logo</title><path class="cls-1" d="M65.55,28.87A8.88,8.88,0,1,1,74.23,20a8.79,8.79,0,0,1-8.68,8.88ZM74.25,30c0,.81,1.4,3.1,3.1,3.1h1.11a.78.78,0,0,0,.78-.78V8h0a.78.78,0,0,0-.77-.73H75a.78.78,0,0,0-.77.73h0v2a10.94,10.94,0,0,0-8.72-3.66,13.65,13.65,0,1,0,0,27.3c3.32,0,6.93-1.28,8.72-3.65Zm13.17-3.48a12.57,12.57,0,0,0,7.17,2.36c2.29,0,4.65-1.19,4.65-3.25,0-2.75-5.15-3.18-8.38-4.28s-6-3.37-6-7c0-5.62,5-7.95,9.7-7.95a14.6,14.6,0,0,1,8,2.38.8.8,0,0,1,.27,1.11l-1.9,2.71a.79.79,0,0,1-1.12.23,8.59,8.59,0,0,0-5.26-1.65c-3.18,0-4.58,1.32-4.58,3,0,2,2.24,2.58,4.86,3.25,4.56,1.23,9.54,2.71,9.54,8.3,0,5-4.64,8-9.77,8a16.36,16.36,0,0,1-10-3.14.83.83,0,0,1-.18-1.11l1.89-2.69A.75.75,0,0,1,87.42,26.51ZM130,30c0,.81,1.39,3.1,3.1,3.1h1.1a.78.78,0,0,0,.78-.78V8h0a.79.79,0,0,0-.78-.73h-3.42A.78.78,0,0,0,130,8h0v2a11,11,0,0,0-8.72-3.66,13.65,13.65,0,1,0,0,27.3c3.31,0,6.93-1.28,8.72-3.65Zm-8.71-1.12A8.88,8.88,0,1,1,130,20,8.78,8.78,0,0,1,121.33,28.87Zm44.37,2V18.26h0c0-7.08-4.47-11.86-11.6-11.86a8.67,8.67,0,0,0-7.17,3.66v0c0-1.71-1.39-2.7-3.1-2.7h-1.1a.78.78,0,0,0-.78.78V30.05h0v2.35h0a.79.79,0,0,0,.78.74h3.42l.16,0,.06,0,.08,0,.09-.05,0,0,.09-.08h0l.09-.11h0a.73.73,0,0,0,.15-.41h0V18.07a6.89,6.89,0,0,1,13.78,0v12h0v2.36h0a.78.78,0,0,0,.77.74h3.43l.15,0,.06,0,.08,0,.08,0,.05,0,.09-.07,0,0a.41.41,0,0,0,.09-.1h0a.8.8,0,0,0,.14-.41h0V30.83ZM192.4,30c0,.81,1.39,3.1,3.1,3.1h1.1a.78.78,0,0,0,.78-.78V8h0a.79.79,0,0,0-.78-.73h-3.42a.79.79,0,0,0-.78.73h0v2a11,11,0,0,0-8.72-3.66,13.65,13.65,0,0,0,0,27.3c3.31,0,6.93-1.28,8.72-3.65Zm-8.71-1.12A8.88,8.88,0,1,1,192.37,20,8.79,8.79,0,0,1,183.69,28.87Z"/><path class="cls-2" d="M32.48,20.31a9,9,0,1,0,9,9,9,9,0,0,0-9-9ZM9,20.31a9,9,0,1,0,9,9,9,9,0,0,0-9-9ZM29.78,9a9,9,0,1,1-9-9,9,9,0,0,1,9,9Z"/><path class="cls-1" d="M65.55,28.87A8.88,8.88,0,1,1,74.23,20a8.79,8.79,0,0,1-8.68,8.88ZM74.25,30c0,.81,1.4,3.1,3.1,3.1h1.11a.78.78,0,0,0,.78-.78V8h0a.78.78,0,0,0-.77-.73H75a.78.78,0,0,0-.77.73h0v2a10.94,10.94,0,0,0-8.72-3.66,13.65,13.65,0,1,0,0,27.3c3.32,0,6.93-1.28,8.72-3.65Zm13.17-3.48a12.57,12.57,0,0,0,7.17,2.36c2.29,0,4.65-1.19,4.65-3.25,0-2.75-5.15-3.18-8.38-4.28s-6-3.37-6-7c0-5.62,5-7.95,9.7-7.95a14.6,14.6,0,0,1,8,2.38.8.8,0,0,1,.27,1.11l-1.9,2.71a.79.79,0,0,1-1.12.23,8.59,8.59,0,0,0-5.26-1.65c-3.18,0-4.58,1.32-4.58,3,0,2,2.24,2.58,4.86,3.25,4.56,1.23,9.54,2.71,9.54,8.3,0,5-4.64,8-9.77,8a16.36,16.36,0,0,1-10-3.14.83.83,0,0,1-.18-1.11l1.89-2.69A.75.75,0,0,1,87.42,26.51ZM130,30c0,.81,1.39,3.1,3.1,3.1h1.1a.78.78,0,0,0,.78-.78V8h0a.79.79,0,0,0-.78-.73h-3.42A.78.78,0,0,0,130,8h0v2a11,11,0,0,0-8.72-3.66,13.65,13.65,0,1,0,0,27.3c3.31,0,6.93-1.28,8.72-3.65Zm-8.71-1.12A8.88,8.88,0,1,1,130,20,8.78,8.78,0,0,1,121.33,28.87Zm44.37,2V18.26h0c0-7.08-4.47-11.86-11.6-11.86a8.67,8.67,0,0,0-7.17,3.66v0c0-1.71-1.39-2.7-3.1-2.7h-1.1a.78.78,0,0,0-.78.78V30.05h0v2.35h0a.79.79,0,0,0,.78.74h3.42l.16,0,.06,0,.08,0,.09-.05,0,0,.09-.08h0l.09-.11h0a.73.73,0,0,0,.15-.41h0V18.07a6.89,6.89,0,0,1,13.78,0v12h0v2.36h0a.78.78,0,0,0,.77.74h3.43l.15,0,.06,0,.08,0,.08,0,.05,0,.09-.07,0,0a.41.41,0,0,0,.09-.1h0a.8.8,0,0,0,.14-.41h0V30.83ZM192.4,30c0,.81,1.39,3.1,3.1,3.1h1.1a.78.78,0,0,0,.78-.78V8h0a.79.79,0,0,0-.78-.73h-3.42a.79.79,0,0,0-.78.73h0v2a11,11,0,0,0-8.72-3.66,13.65,13.65,0,0,0,0,27.3c3.31,0,6.93-1.28,8.72-3.65Zm-8.71-1.12A8.88,8.88,0,1,1,192.37,20,8.79,8.79,0,0,1,183.69,28.87Z"/><path class="cls-2" d="M32.48,20.31a9,9,0,1,0,9,9,9,9,0,0,0-9-9ZM9,20.31a9,9,0,1,0,9,9,9,9,0,0,0-9-9ZM29.78,9a9,9,0,1,1-9-9,9,9,0,0,1,9,9Z"/></svg>